<?xml version="1.0" standalone="no"?>
<!DOCTYPE svg PUBLIC "-//W3C//DTD SVG 20010904//EN"
 "http://www.w3.org/TR/2001/REC-SVG-20010904/DTD/svg10.dtd">
<svg version="1.0" xmlns="http://www.w3.org/2000/svg"
 width="700.000000pt" height="700.000000pt" viewBox="0 0 700.000000 700.000000"
 preserveAspectRatio="xMidYMid meet">
<metadata>
Created by potrace 1.14, written by Peter Selinger 2001-2017
</metadata>
<g transform="translate(0.000000,700.000000) scale(0.100000,-0.100000)"
fill="#000000" stroke="none">
<path d="M2070 6331 c-46 -14 -91 -42 -126 -78 -63 -65 -75 -106 -90 -298 -3
-49 -8 -106 -9 -125 -2 -19 -4 -45 -4 -57 -1 -21 -5 -21 -168 -25 -166 -3
-169 -3 -223 -34 -60 -34 -113 -100 -130 -164 -7 -25 -9 -775 -8 -2276 l3
-2239 22 -40 c35 -66 108 -125 173 -141 19 -4 145 -9 280 -10 135 -1 248 -2
252 -3 4 0 14 -13 22 -28 26 -49 72 -92 127 -120 l54 -28 1610 0 1610 0 51 23
c60 27 113 79 146 142 l23 45 3 1039 c3 1197 9 1111 -87 1206 -45 45 -69 61
-113 74 -31 9 -65 16 -77 16 -17 0 -19 5 -16 33 3 17 7 68 10 112 4 44 8 94 9
110 2 17 7 68 11 115 4 47 9 103 11 125 2 22 6 69 9 105 3 36 7 83 9 105 3 22
7 78 11 125 4 47 8 98 10 114 2 17 7 68 10 115 4 47 8 97 10 111 2 14 7 63 10
110 4 47 8 101 10 120 2 19 7 71 10 115 3 44 8 96 10 115 2 19 6 67 10 105 3
39 8 90 10 115 3 25 7 81 10 125 3 44 8 96 10 115 2 19 7 67 10 105 4 39 8 90
10 115 30 326 26 362 -46 444 -61 69 -113 88 -274 101 -44 4 -96 8 -115 10
-19 3 -71 7 -115 10 -44 3 -93 8 -110 10 -16 2 -64 7 -105 10 -41 3 -95 8
-120 10 -25 3 -76 7 -115 10 -38 3 -90 7 -115 10 -25 2 -79 7 -120 10 -41 4
-86 8 -100 10 -14 2 -70 7 -125 11 -55 3 -107 8 -115 9 -8 2 -53 6 -100 9 -47
4 -101 9 -120 11 -19 2 -73 7 -120 10 -47 3 -101 8 -120 10 -19 2 -66 6 -105
10 -130 11 -180 15 -225 20 -25 2 -81 7 -125 11 -44 4 -93 8 -110 9 -16 2 -68
6 -115 9 -47 4 -101 9 -120 11 -19 3 -68 7 -109 10 -40 3 -90 8 -110 10 -20 1
-72 6 -116 10 -44 4 -98 9 -120 11 -95 9 -212 11 -235 5z m275 -246 c32 -4
116 -12 218 -20 34 -3 87 -8 117 -10 30 -3 80 -8 110 -10 30 -3 75 -7 100 -9
25 -3 81 -8 125 -11 44 -4 98 -8 120 -11 22 -2 71 -6 110 -9 38 -3 90 -7 115
-9 48 -5 150 -14 240 -22 30 -2 78 -6 105 -9 28 -2 79 -7 115 -10 36 -3 90 -7
120 -10 68 -6 173 -15 220 -20 19 -2 73 -6 120 -10 47 -3 101 -8 120 -10 47
-5 139 -14 230 -21 41 -3 86 -7 100 -9 14 -2 67 -7 119 -10 52 -4 101 -8 110
-10 9 -1 59 -6 111 -10 52 -3 109 -8 125 -10 17 -1 61 -6 100 -9 38 -4 73 -13
77 -19 7 -11 3 -140 -7 -207 -2 -14 -6 -63 -10 -110 -3 -47 -8 -101 -10 -120
-2 -19 -7 -69 -10 -110 -3 -41 -8 -95 -10 -120 -2 -25 -7 -79 -10 -120 -6 -74
-11 -126 -20 -217 -2 -27 -7 -82 -10 -123 -4 -41 -8 -97 -10 -125 -3 -27 -7
-81 -10 -120 -3 -38 -8 -86 -10 -105 -2 -19 -7 -69 -10 -110 -10 -120 -21
-247 -30 -340 -3 -25 -7 -81 -10 -125 -4 -44 -8 -96 -10 -115 -2 -19 -6 -75
-10 -125 -4 -49 -8 -97 -10 -105 -1 -8 -6 -57 -10 -107 l-7 -93 -44 0 -44 0 0
1151 c0 788 -3 1164 -11 1193 -16 66 -75 136 -143 171 l-59 30 -1381 0 c-760
0 -1386 4 -1393 8 -7 4 -10 13 -8 20 2 7 6 46 9 88 11 149 18 204 29 217 10
13 107 11 232 -3z m2478 -574 c9 -9 12 -311 12 -1156 l0 -1145 -300 0 c-420 0
-406 5 -705 -234 -300 -239 -338 -267 -380 -282 -31 -11 -157 -14 -612 -14
l-573 -1 -59 -24 c-73 -30 -119 -73 -154 -145 l-27 -55 -3 -685 c-1 -376 -5
-686 -7 -688 -2 -2 -104 -4 -226 -4 -191 0 -225 3 -235 16 -14 19 -17 4381 -3
4408 6 10 24 18 47 20 20 2 752 2 1626 1 1177 -1 1591 -4 1599 -12z m613
-2553 c16 -16 17 -91 19 -1018 2 -941 1 -1003 -16 -1023 l-17 -22 -1566 0
c-1484 0 -1566 1 -1583 18 -17 16 -18 62 -17 758 0 686 2 741 18 757 15 16 63
17 599 18 578 2 582 2 647 24 84 30 110 48 389 273 209 168 275 216 319 229 8
2 278 3 602 3 541 0 591 -1 606 -17z"/>
<path d="M2823 5100 c-51 -30 -69 -80 -50 -135 27 -77 46 -80 423 -79 238 0
329 3 352 13 86 36 87 164 1 208 -18 9 -113 13 -359 13 -314 0 -337 -1 -367
-20z"/>
<path d="M2175 4450 c-103 -41 -95 -190 11 -218 16 -5 474 -8 1019 -7 929 1
992 2 1016 18 49 33 66 114 35 163 -36 53 7 51 -1066 52 -547 0 -1004 -4
-1015 -8z"/>
<path d="M2167 3855 c-42 -22 -56 -40 -63 -83 -7 -46 13 -93 53 -119 24 -16
99 -17 1028 -17 928 0 1005 1 1029 17 38 25 59 63 58 103 -2 46 -17 71 -55 94
-31 19 -59 20 -1027 20 -849 0 -999 -2 -1023 -15z"/>
<path d="M4605 1356 c-79 -34 -93 -135 -26 -193 31 -27 10 -25 286 -27 132 -1
236 2 259 9 98 27 112 151 23 205 -29 18 -51 20 -272 20 -175 -1 -248 -4 -270
-14z"/>
</g>
</svg>
